<svg xmlns="http://www.w3.org/2000/svg" xmlns:xlink="http://www.w3.org/1999/xlink" width="0.98em" height="1em" preserveAspectRatio="xMidYMid meet" viewBox="0 0 34 35" style="-ms-transform: rotate(360deg); -webkit-transform: rotate(360deg); transform: rotate(360deg);"><g fill="none"><g filter="url(#IconifyId-182f088b93a-e977b3-18432)"><path fill="url(#IconifyId-182f088b93a-e977b3-18419)" d="M16.999 29.999c8.668 0 12.999-5.596 12.999-12.499c0-6.903-4.332-12.499-13-12.499C8.332 5.001 4 10.597 4 17.5c0 6.903 4.331 12.499 12.999 12.499Z"/><path fill="url(#IconifyId-182f088b93a-e977b3-18420)" d="M16.999 29.999c8.668 0 12.999-5.596 12.999-12.499c0-6.903-4.332-12.499-13-12.499C8.332 5.001 4 10.597 4 17.5c0 6.903 4.331 12.499 12.999 12.499Z"/><path fill="url(#IconifyId-182f088b93a-e977b3-18421)" d="M16.999 29.999c8.668 0 12.999-5.596 12.999-12.499c0-6.903-4.332-12.499-13-12.499C8.332 5.001 4 10.597 4 17.5c0 6.903 4.331 12.499 12.999 12.499Z"/><path fill="url(#IconifyId-182f088b93a-e977b3-18422)" d="M16.999 29.999c8.668 0 12.999-5.596 12.999-12.499c0-6.903-4.332-12.499-13-12.499C8.332 5.001 4 10.597 4 17.5c0 6.903 4.331 12.499 12.999 12.499Z"/><path fill="url(#IconifyId-182f088b93a-e977b3-18423)" d="M16.999 29.999c8.668 0 12.999-5.596 12.999-12.499c0-6.903-4.332-12.499-13-12.499C8.332 5.001 4 10.597 4 17.5c0 6.903 4.331 12.499 12.999 12.499Z"/><path fill="url(#IconifyId-182f088b93a-e977b3-18424)" fill-opacity=".3" d="M16.999 29.999c8.668 0 12.999-5.596 12.999-12.499c0-6.903-4.332-12.499-13-12.499C8.332 5.001 4 10.597 4 17.5c0 6.903 4.331 12.499 12.999 12.499Z"/><path fill="url(#IconifyId-182f088b93a-e977b3-18425)" d="M16.999 29.999c8.668 0 12.999-5.596 12.999-12.499c0-6.903-4.332-12.499-13-12.499C8.332 5.001 4 10.597 4 17.5c0 6.903 4.331 12.499 12.999 12.499Z"/></g><g filter="url(#IconifyId-182f088b93a-e977b3-18433)"><rect width="10.611" height="7.516" x="11.005" y="19.023" fill="url(#IconifyId-182f088b93a-e977b3-18390)" rx="3.758"/><rect width="10.111" height="7.016" x="11.255" y="19.273" stroke="url(#IconifyId-182f088b93a-e977b3-18426)" stroke-width=".5" rx="3.508"/></g><rect width="9.234" height="6.625" x="12.382" y="18.351" fill="url(#IconifyId-182f088b93a-e977b3-18391)" rx="3.313"/><rect width="9.234" height="6.625" x="12.382" y="18.351" fill="url(#IconifyId-182f088b93a-e977b3-18392)" rx="3.313"/><rect width="9.234" height="6.625" x="12.382" y="18.351" fill="url(#IconifyId-182f088b93a-e977b3-18393)" rx="3.313"/><rect width="9.234" height="6.625" x="12.382" y="18.351" fill="url(#IconifyId-182f088b93a-e977b3-18427)" fill-opacity=".5" rx="3.313"/><g filter="url(#IconifyId-182f088b93a-e977b3-18434)"><circle cx="15.37" cy="21.421" r="1.084" fill="#FF93D0"/></g><g filter="url(#IconifyId-182f088b93a-e977b3-18435)"><circle cx="18.966" cy="21.421" r="1.084" fill="#FF93D0"/></g><g filter="url(#IconifyId-182f088b93a-e977b3-18436)"><path fill="url(#IconifyId-182f088b93a-e977b3-18394)" d="m26.06 6.984l2.787 2.787a1.818 1.818 0 0 1 0 2.561L26.06 15.12c-1.145 1.146-3.094.334-3.094-1.28V8.273c0-1.614 1.958-2.426 3.094-1.29Z"/></g><path fill="url(#IconifyId-182f088b93a-e977b3-18395)" d="m26.7 6.041l3.09 3.09c.78.78.78 2.06 0 2.84l-3.09 3.09c-1.27 1.27-3.43.37-3.43-1.42v-6.17c0-1.79 2.17-2.69 3.43-1.43Z"/><path fill="url(#IconifyId-182f088b93a-e977b3-18396)" d="m26.7 6.041l3.09 3.09c.78.78.78 2.06 0 2.84l-3.09 3.09c-1.27 1.27-3.43.37-3.43-1.42v-6.17c0-1.79 2.17-2.69 3.43-1.43Z"/><path fill="url(#IconifyId-182f088b93a-e977b3-18397)" d="m26.7 6.041l3.09 3.09c.78.78.78 2.06 0 2.84l-3.09 3.09c-1.27 1.27-3.43.37-3.43-1.42v-6.17c0-1.79 2.17-2.69 3.43-1.43Z"/><path fill="url(#IconifyId-182f088b93a-e977b3-18398)" d="m26.7 6.041l3.09 3.09c.78.78.78 2.06 0 2.84l-3.09 3.09c-1.27 1.27-3.43.37-3.43-1.42v-6.17c0-1.79 2.17-2.69 3.43-1.43Z"/><path fill="url(#IconifyId-182f088b93a-e977b3-18428)" d="m26.7 6.041l3.09 3.09c.78.78.78 2.06 0 2.84l-3.09 3.09c-1.27 1.27-3.43.37-3.43-1.42v-6.17c0-1.79 2.17-2.69 3.43-1.43Z"/><path fill="url(#IconifyId-182f088b93a-e977b3-18429)" d="m26.7 6.041l3.09 3.09c.78.78.78 2.06 0 2.84l-3.09 3.09c-1.27 1.27-3.43.37-3.43-1.42v-6.17c0-1.79 2.17-2.69 3.43-1.43Z"/><path fill="url(#IconifyId-182f088b93a-e977b3-18399)" d="m26.7 6.041l3.09 3.09c.78.78.78 2.06 0 2.84l-3.09 3.09c-1.27 1.27-3.43.37-3.43-1.42v-6.17c0-1.79 2.17-2.69 3.43-1.43Z"/><g filter="url(#IconifyId-182f088b93a-e977b3-18437)"><path fill="url(#IconifyId-182f088b93a-e977b3-18400)" d="M4.938 13.83c.287-1.726 1.541-2.428 2.156-2.579l2.422 4.422l-2.141.844l-2.438-2.688Z"/></g><path fill="url(#IconifyId-182f088b93a-e977b3-18401)" d="m6.62 5.634l-3.044 3.34c-.768.84-.768 2.218 0 3.058l3.045 3.329C7.87 16.729 10 15.759 10 13.83V7.174c0-1.928-2.128-2.897-3.38-1.54Z"/><path fill="url(#IconifyId-182f088b93a-e977b3-18402)" d="m6.62 5.634l-3.044 3.34c-.768.84-.768 2.218 0 3.058l3.045 3.329C7.87 16.729 10 15.759 10 13.83V7.174c0-1.928-2.128-2.897-3.38-1.54Z"/><path fill="url(#IconifyId-182f088b93a-e977b3-18403)" d="m6.62 5.634l-3.044 3.34c-.768.84-.768 2.218 0 3.058l3.045 3.329C7.87 16.729 10 15.759 10 13.83V7.174c0-1.928-2.128-2.897-3.38-1.54Z"/><path fill="url(#IconifyId-182f088b93a-e977b3-18404)" d="m6.62 5.634l-3.044 3.34c-.768.84-.768 2.218 0 3.058l3.045 3.329C7.87 16.729 10 15.759 10 13.83V7.174c0-1.928-2.128-2.897-3.38-1.54Z"/><path fill="url(#IconifyId-182f088b93a-e977b3-18430)" d="m6.62 5.634l-3.044 3.34c-.768.84-.768 2.218 0 3.058l3.045 3.329C7.87 16.729 10 15.759 10 13.83V7.174c0-1.928-2.128-2.897-3.38-1.54Z"/><path fill="url(#IconifyId-182f088b93a-e977b3-18405)" d="m6.62 5.634l-3.044 3.34c-.768.84-.768 2.218 0 3.058l3.045 3.329C7.87 16.729 10 15.759 10 13.83V7.174c0-1.928-2.128-2.897-3.38-1.54Z"/><path fill="url(#IconifyId-182f088b93a-e977b3-18431)" d="m6.62 5.634l-3.044 3.34c-.768.84-.768 2.218 0 3.058l3.045 3.329C7.87 16.729 10 15.759 10 13.83V7.174c0-1.928-2.128-2.897-3.38-1.54Z"/><path fill="url(#IconifyId-182f088b93a-e977b3-18406)" d="M18.827 22.656a1 1 0 1 0 0-2a1 1 0 0 0 0 2Z"/><path fill="url(#IconifyId-182f088b93a-e977b3-18407)" d="M15.17 22.656a1 1 0 1 0 0-2a1 1 0 0 0 0 2Z"/><g filter="url(#IconifyId-182f088b93a-e977b3-18438)"><rect width="1.5" height="2.5" x="20.172" y="15.267" fill="#FF648B" rx=".75"/></g><g filter="url(#IconifyId-182f088b93a-e977b3-18439)"><rect width="1.5" height="2.5" x="11.672" y="15.267" fill="#FF648B" rx=".75"/></g><rect width="1.5" height="2.5" x="20.5" y="15.001" fill="url(#IconifyId-182f088b93a-e977b3-18408)" rx=".75"/><rect width="1.5" height="2.5" x="20.5" y="15.001" fill="url(#IconifyId-182f088b93a-e977b3-18409)" rx=".75"/><rect width="1.5" height="2.5" x="20.5" y="15.001" fill="url(#IconifyId-182f088b93a-e977b3-18410)" rx=".75"/><rect width="1.5" height="2.5" x="12" y="15.001" fill="url(#IconifyId-182f088b93a-e977b3-18411)" rx=".75"/><rect width="1.5" height="2.5" x="12" y="15.001" fill="url(#IconifyId-182f088b93a-e977b3-18412)" rx=".75"/><rect width="1.5" height="2.5" x="12" y="15.001" fill="url(#IconifyId-182f088b93a-e977b3-18413)" rx=".75"/><g filter="url(#IconifyId-182f088b93a-e977b3-18440)"><path stroke="url(#IconifyId-182f088b93a-e977b3-18414)" stroke-linecap="round" d="m29.625 10.476l-3.813 4.188"/></g><g filter="url(#IconifyId-182f088b93a-e977b3-18441)"><path stroke="url(#IconifyId-182f088b93a-e977b3-18415)" stroke-linecap="round" stroke-width=".3" d="M9.225 7.185v7.479"/></g><g filter="url(#IconifyId-182f088b93a-e977b3-18442)"><path stroke="url(#IconifyId-182f088b93a-e977b3-18416)" stroke-linecap="round" stroke-width=".15" d="M18.556 19.023c1.218 0 2.663.797 2.663 3.031"/></g><g filter="url(#IconifyId-182f088b93a-e977b3-18443)"><path stroke="url(#IconifyId-182f088b93a-e977b3-18417)" stroke-linecap="round" stroke-width=".15" d="M17.443 21.737c.045.452.416 1.339 1.538 1.266"/></g><g filter="url(#IconifyId-182f088b93a-e977b3-18444)"><path stroke="url(#IconifyId-182f088b93a-e977b3-18418)" stroke-linecap="round" stroke-opacity=".75" stroke-width=".15" d="M13.749 21.737c.045.452.416 1.339 1.538 1.266"/></g><defs><linearGradient id="IconifyId-182f088b93a-e977b3-18390" x1="16.31" x2="13.167" y1="23.232" y2="27.021" gradientUnits="userSpaceOnUse"><stop stop-color="#EB3F85"/><stop offset="1" stop-color="#FC4992" stop-opacity="0"/></linearGradient><linearGradient id="IconifyId-182f088b93a-e977b3-18391" x1="15.362" x2="20.025" y1="26.103" y2="19.076" gradientUnits="userSpaceOnUse"><stop stop-color="#FF9DE5"/><stop offset="1" stop-color="#FFAFE5"/></linearGradient><linearGradient id="IconifyId-182f088b93a-e977b3-18392" x1="16.999" x2="16.999" y1="25.811" y2="22.257" gradientUnits="userSpaceOnUse"><stop stop-color="#FF8DF3"/><stop offset="1" stop-color="#FF8DF3" stop-opacity="0"/></linearGradient><linearGradient id="IconifyId-182f088b93a-e977b3-18393" x1="16.999" x2="16.999" y1="17.219" y2="19.566" gradientUnits="userSpaceOnUse"><stop stop-color="#FFABC8"/><stop offset="1" stop-color="#FFABC8" stop-opacity="0"/></linearGradient><linearGradient id="IconifyId-182f088b93a-e977b3-18394" x1="26.171" x2="24.583" y1="9.349" y2="14.704" gradientUnits="userSpaceOnUse"><stop stop-color="#F78296"/><stop offset="1" stop-color="#E3519C"/></linearGradient><linearGradient id="IconifyId-182f088b93a-e977b3-18395" x1="26.823" x2="25.063" y1="8.664" y2="14.601" gradientUnits="userSpaceOnUse"><stop stop-color="#FFC5DE"/><stop offset="1" stop-color="#FFB5EA"/></linearGradient><linearGradient id="IconifyId-182f088b93a-e977b3-18396" x1="28.094" x2="26.823" y1="13.914" y2="12.71" gradientUnits="userSpaceOnUse"><stop stop-color="#FFA0D5"/><stop offset="1" stop-color="#FFADDB" stop-opacity="0"/></linearGradient><linearGradient id="IconifyId-182f088b93a-e977b3-18397" x1="23.27" x2="25.25" y1="12.289" y2="12.289" gradientUnits="userSpaceOnUse"><stop stop-color="#FFA0D5"/><stop offset="1" stop-color="#FFADDB" stop-opacity="0"/></linearGradient><linearGradient id="IconifyId-182f088b93a-e977b3-18398" x1="21.313" x2="28.125" y1="15.656" y2="12.289" gradientUnits="userSpaceOnUse"><stop stop-color="#FFA0D5"/><stop offset="1" stop-color="#FFADDB" stop-opacity="0"/></linearGradient><linearGradient id="IconifyId-182f088b93a-e977b3-18399" x1="29.625" x2="26.156" y1="4.226" y2="7.945" gradientUnits="userSpaceOnUse"><stop offset=".282" stop-color="#EC9099"/><stop offset="1" stop-color="#EC9099" stop-opacity="0"/></linearGradient><linearGradient id="IconifyId-182f088b93a-e977b3-18400" x1="6.031" x2="9.612" y1="13.601" y2="16.23" gradientUnits="userSpaceOnUse"><stop stop-color="#BC4F87"/><stop offset="1" stop-color="#E3519C"/></linearGradient><linearGradient id="IconifyId-182f088b93a-e977b3-18401" x1="6.5" x2="4.456" y1="8.462" y2="14.763" gradientUnits="userSpaceOnUse"><stop stop-color="#FFC5DE"/><stop offset="1" stop-color="#FFB5EA"/></linearGradient><linearGradient id="IconifyId-182f088b93a-e977b3-18402" x1="7.627" x2="4.819" y1="16.429" y2="12.038" gradientUnits="userSpaceOnUse"><stop stop-color="#FFA0D5"/><stop offset="1" stop-color="#FFADDB" stop-opacity="0"/></linearGradient><linearGradient id="IconifyId-182f088b93a-e977b3-18403" x1="4.491" x2="7.688" y1="15.404" y2="12.63" gradientUnits="userSpaceOnUse"><stop stop-color="#E88BC9"/><stop offset="1" stop-color="#E88BC9" stop-opacity="0"/></linearGradient><linearGradient id="IconifyId-182f088b93a-e977b3-18404" x1="3.767" x2="10.391" y1="6.357" y2="12.502" gradientUnits="userSpaceOnUse"><stop stop-color="#EC9099"/><stop offset="1" stop-color="#EC9099" stop-opacity="0"/></linearGradient><linearGradient id="IconifyId-182f088b93a-e977b3-18405" x1="2.188" x2="6.125" y1="6.25" y2="10.188" gradientUnits="userSpaceOnUse"><stop offset=".238" stop-color="#BD747C"/><stop offset="1" stop-color="#CC8C93" stop-opacity="0"/></linearGradient><linearGradient id="IconifyId-182f088b93a-e977b3-18406" x1="18.827" x2="18.827" y1="21.131" y2="22.49" gradientUnits="userSpaceOnUse"><stop stop-color="#D6085D"/><stop offset="1" stop-color="#AB087F"/></linearGradient><linearGradient id="IconifyId-182f088b93a-e977b3-18407" x1="15.171" x2="15.171" y1="21.131" y2="22.49" gradientUnits="userSpaceOnUse"><stop stop-color="#D6085D"/><stop offset="1" stop-color="#AB087F"/></linearGradient><linearGradient id="IconifyId-182f088b93a-e977b3-18408" x1="21.758" x2="20.839" y1="16.251" y2="16.251" gradientUnits="userSpaceOnUse"><stop stop-color="#574D50"/><stop offset=".855" stop-color="#31232C"/></linearGradient><linearGradient id="IconifyId-182f088b93a-e977b3-18409" x1="22.234" x2="22.234" y1="17.782" y2="16.875" gradientUnits="userSpaceOnUse"><stop stop-color="#552D52"/><stop offset="1" stop-color="#552D52" stop-opacity="0"/></linearGradient><linearGradient id="IconifyId-182f088b93a-e977b3-18410" x1="20.186" x2="20.863" y1="16.404" y2="16.404" gradientUnits="userSpaceOnUse"><stop stop-color="#574D50"/><stop offset="1" stop-color="#574D50" stop-opacity="0"/></linearGradient><linearGradient id="IconifyId-182f088b93a-e977b3-18411" x1="13.258" x2="12.339" y1="16.251" y2="16.251" gradientUnits="userSpaceOnUse"><stop stop-color="#574D50"/><stop offset=".855" stop-color="#31232C"/></linearGradient><linearGradient id="IconifyId-182f088b93a-e977b3-18412" x1="13.734" x2="13.734" y1="17.782" y2="16.875" gradientUnits="userSpaceOnUse"><stop stop-color="#552D52"/><stop offset="1" stop-color="#552D52" stop-opacity="0"/></linearGradient><linearGradient id="IconifyId-182f088b93a-e977b3-18413" x1="11.685" x2="12.363" y1="16.404" y2="16.404" gradientUnits="userSpaceOnUse"><stop stop-color="#574D50"/><stop offset="1" stop-color="#574D50" stop-opacity="0"/></linearGradient><linearGradient id="IconifyId-182f088b93a-e977b3-18414" x1="29.406" x2="25.594" y1="11.382" y2="15.164" gradientUnits="userSpaceOnUse"><stop stop-color="#FFD8EE"/><stop offset="1" stop-color="#FFD8EE" stop-opacity="0"/></linearGradient><linearGradient id="IconifyId-182f088b93a-e977b3-18415" x1="8.093" x2="8.093" y1="10.17" y2="22.052" gradientUnits="userSpaceOnUse"><stop stop-color="#FFE6F4"/><stop offset="1" stop-color="#FFE5F4" stop-opacity="0"/></linearGradient><linearGradient id="IconifyId-182f088b93a-e977b3-18416" x1="17.865" x2="23.308" y1="18.163" y2="22.054" gradientUnits="userSpaceOnUse"><stop stop-color="#FFD6F0" stop-opacity="0"/><stop offset=".448" stop-color="#FFE1F4"/><stop offset="1" stop-color="#FFD6F0" stop-opacity="0"/></linearGradient><linearGradient id="IconifyId-182f088b93a-e977b3-18417" x1="17.044" x2="19.455" y1="21.376" y2="23.751" gradientUnits="userSpaceOnUse"><stop stop-color="#FFD6F0" stop-opacity="0"/><stop offset=".448" stop-color="#FFE1F4"/><stop offset="1" stop-color="#FFD6F0" stop-opacity="0"/></linearGradient><linearGradient id="IconifyId-182f088b93a-e977b3-18418" x1="13.35" x2="15.761" y1="21.376" y2="23.751" gradientUnits="userSpaceOnUse"><stop stop-color="#FFD6F0" stop-opacity="0"/><stop offset=".078" stop-color="#FFD8F1" stop-opacity=".174"/><stop offset=".448" stop-color="#FFE1F4"/><stop offset="1" stop-color="#FFD6F0" stop-opacity="0"/></linearGradient><radialGradient id="IconifyId-182f088b93a-e977b3-18419" cx="0" cy="0" r="1" gradientTransform="matrix(-6.00116 23.4375 -30.12477 -7.71343 23 7.539)" gradientUnits="userSpaceOnUse"><stop offset=".164" stop-color="#FFC0CA"/><stop offset=".543" stop-color="#FF8CA8"/><stop offset=".891" stop-color="#FA5292"/></radialGradient><radialGradient id="IconifyId-182f088b93a-e977b3-18420" cx="0" cy="0" r="1" gradientTransform="matrix(0 16.375 -17.3923 0 16.999 14.289)" gradientUnits="userSpaceOnUse"><stop offset=".884" stop-color="#FF6CD7" stop-opacity="0"/><stop offset="1" stop-color="#FF6CD7"/></radialGradient><radialGradient id="IconifyId-182f088b93a-e977b3-18421" cx="0" cy="0" r="1" gradientTransform="rotate(-137.793 14.254 -.21) scale(4.53529 2.73031)" gradientUnits="userSpaceOnUse"><stop stop-color="#E2697D"/><stop offset=".286" stop-color="#F78296"/><stop offset="1" stop-color="#F78296" stop-opacity="0"/></radialGradient><radialGradient id="IconifyId-182f088b93a-e977b3-18422" cx="0" cy="0" r="1" gradientTransform="matrix(5.6875 3.875 -6.70294 9.8382 1.188 14.414)" gradientUnits="userSpaceOnUse"><stop stop-color="#C86C80"/><stop offset="1" stop-color="#C86C80" stop-opacity="0"/></radialGradient><radialGradient id="IconifyId-182f088b93a-e977b3-18423" cx="0" cy="0" r="1" gradientTransform="matrix(0 -2.89497 6.79187 0 16.999 19.143)" gradientUnits="userSpaceOnUse"><stop stop-color="#FF857D"/><stop offset="1" stop-color="#FF857D" stop-opacity="0"/></radialGradient><radialGradient id="IconifyId-182f088b93a-e977b3-18424" cx="0" cy="0" r="1" gradientTransform="matrix(-4.6875 .25001 -.59651 -11.1842 27.688 19.226)" gradientUnits="userSpaceOnUse"><stop stop-color="#FFB5C8"/><stop offset="1" stop-color="#FFB5C8" stop-opacity="0"/></radialGradient><radialGradient id="IconifyId-182f088b93a-e977b3-18425" cx="0" cy="0" r="1" gradientTransform="rotate(124.608 11.675 14.205) scale(6.37863 5.88374)" gradientUnits="userSpaceOnUse"><stop stop-color="#FFB5C8"/><stop offset="1" stop-color="#FFB5C8" stop-opacity="0"/></radialGradient><radialGradient id="IconifyId-182f088b93a-e977b3-18426" cx="0" cy="0" r="1" gradientTransform="matrix(-1.5917 4.38412 -3.88417 -1.4102 20.024 19.65)" gradientUnits="userSpaceOnUse"><stop stop-color="#FFD0EF"/><stop offset="1" stop-color="#FFCEF0" stop-opacity="0"/></radialGradient><radialGradient id="IconifyId-182f088b93a-e977b3-18427" cx="0" cy="0" r="1" gradientTransform="rotate(137.281 7.012 13.934) scale(3.68944 5.09474)" gradientUnits="userSpaceOnUse"><stop stop-color="#FFC7EA"/><stop offset="1" stop-color="#FFC7EA" stop-opacity="0"/></radialGradient><radialGradient id="IconifyId-182f088b93a-e977b3-18428" cx="0" cy="0" r="1" gradientTransform="matrix(3.625 4.6875 -3.92418 3.0347 22.5 3.726)" gradientUnits="userSpaceOnUse"><stop stop-color="#EC9099"/><stop offset="1" stop-color="#EC9099" stop-opacity="0"/></radialGradient><radialGradient id="IconifyId-182f088b93a-e977b3-18429" cx="0" cy="0" r="1" gradientTransform="rotate(-149.503 20.134 2.921) scale(16.6104 12.5171)" gradientUnits="userSpaceOnUse"><stop offset=".863" stop-color="#EC9099" stop-opacity="0"/><stop offset="1" stop-color="#EC9099"/></radialGradient><radialGradient id="IconifyId-182f088b93a-e977b3-18430" cx="0" cy="0" r="1" gradientTransform="matrix(-.18752 5.12613 -3.26208 -.11933 7.688 5.375)" gradientUnits="userSpaceOnUse"><stop stop-color="#FFA4B7"/><stop offset="1" stop-color="#FFA4B7" stop-opacity="0"/></radialGradient><radialGradient id="IconifyId-182f088b93a-e977b3-18431" cx="0" cy="0" r="1" gradientTransform="matrix(-8.71506 -1.67605 1.71063 -8.89486 10.914 12.177)" gradientUnits="userSpaceOnUse"><stop offset=".776" stop-color="#CC8C93" stop-opacity="0"/><stop offset="1" stop-color="#CC8C93"/></radialGradient><filter id="IconifyId-182f088b93a-e977b3-18432" width="27.248" height="25.398" x="4" y="5.001" filterUnits="userSpaceOnUse"><feFlood flood-opacity="0" result="BackgroundImageFix"/><feBlend in="SourceGraphic" in2="BackgroundImageFix" result="shape"/><feColorMatrix in="SourceAlpha" result="hardAlpha" values="0 0 0 0 0 0 0 0 0 0 0 0 0 0 0 0 0 0 127 0"/><feOffset dx="1.25" dy=".4"/><feGaussianBlur stdDeviation="1"/><feComposite in2="hardAlpha" k2="-1" k3="1" operator="arithmetic"/><feColorMatrix values="0 0 0 0 0 0 0 0 0 0 0 0 0 0 0 0 0 0 0.12 0"/><feBlend in2="shape" result="effect1_innerShadow_28327_2988"/></filter><filter id="IconifyId-182f088b93a-e977b3-18433" width="14.611" height="11.516" x="9.005" y="17.023" filterUnits="userSpaceOnUse"><feFlood flood-opacity="0" result="BackgroundImageFix"/><feBlend in="SourceGraphic" in2="BackgroundImageFix" result="shape"/><feGaussianBlur result="effect1_foregroundBlur_28327_2988" stdDeviation="1"/></filter><filter id="IconifyId-182f088b93a-e977b3-18434" width="3.169" height="3.169" x="13.786" y="19.836" filterUnits="userSpaceOnUse"><feFlood flood-opacity="0" result="BackgroundImageFix"/><feBlend in="SourceGraphic" in2="BackgroundImageFix" result="shape"/><feGaussianBlur result="effect1_foregroundBlur_28327_2988" stdDeviation=".25"/></filter><filter id="IconifyId-182f088b93a-e977b3-18435" width="3.169" height="3.169" x="17.381" y="19.836" filterUnits="userSpaceOnUse"><feFlood flood-opacity="0" result="BackgroundImageFix"/><feBlend in="SourceGraphic" in2="BackgroundImageFix" result="shape"/><feGaussianBlur result="effect1_foregroundBlur_28327_2988" stdDeviation=".25"/></filter><filter id="IconifyId-182f088b93a-e977b3-18436" width="9.409" height="12.202" x="21.466" y="4.953" filterUnits="userSpaceOnUse"><feFlood flood-opacity="0" result="BackgroundImageFix"/><feBlend in="SourceGraphic" in2="BackgroundImageFix" result="shape"/><feGaussianBlur result="effect1_foregroundBlur_28327_2988" stdDeviation=".75"/></filter><filter id="IconifyId-182f088b93a-e977b3-18437" width="6.578" height="7.266" x="3.938" y="10.251" filterUnits="userSpaceOnUse"><feFlood flood-opacity="0" result="BackgroundImageFix"/><feBlend in="SourceGraphic" in2="BackgroundImageFix" result="shape"/><feGaussianBlur result="effect1_foregroundBlur_28327_2988" stdDeviation=".5"/></filter><filter id="IconifyId-182f088b93a-e977b3-18438" width="2.5" height="3.5" x="19.672" y="14.767" filterUnits="userSpaceOnUse"><feFlood flood-opacity="0" result="BackgroundImageFix"/><feBlend in="SourceGraphic" in2="BackgroundImageFix" result="shape"/><feGaussianBlur result="effect1_foregroundBlur_28327_2988" stdDeviation=".25"/></filter><filter id="IconifyId-182f088b93a-e977b3-18439" width="2.5" height="3.5" x="11.172" y="14.767" filterUnits="userSpaceOnUse"><feFlood flood-opacity="0" result="BackgroundImageFix"/><feBlend in="SourceGraphic" in2="BackgroundImageFix" result="shape"/><feGaussianBlur result="effect1_foregroundBlur_28327_2988" stdDeviation=".25"/></filter><filter id="IconifyId-182f088b93a-e977b3-18440" width="6.813" height="7.188" x="24.313" y="8.976" filterUnits="userSpaceOnUse"><feFlood flood-opacity="0" result="BackgroundImageFix"/><feBlend in="SourceGraphic" in2="BackgroundImageFix" result="shape"/><feGaussianBlur result="effect1_foregroundBlur_28327_2988" stdDeviation=".5"/></filter><filter id="IconifyId-182f088b93a-e977b3-18441" width="2.3" height="9.779" x="8.075" y="6.035" filterUnits="userSpaceOnUse"><feFlood flood-opacity="0" result="BackgroundImageFix"/><feBlend in="SourceGraphic" in2="BackgroundImageFix" result="shape"/><feGaussianBlur result="effect1_foregroundBlur_28327_2988" stdDeviation=".5"/></filter><filter id="IconifyId-182f088b93a-e977b3-18442" width="3.413" height="3.781" x="18.181" y="18.648" filterUnits="userSpaceOnUse"><feFlood flood-opacity="0" result="BackgroundImageFix"/><feBlend in="SourceGraphic" in2="BackgroundImageFix" result="shape"/><feGaussianBlur result="effect1_foregroundBlur_28327_2988" stdDeviation=".15"/></filter><filter id="IconifyId-182f088b93a-e977b3-18443" width="2.288" height="2.021" x="17.068" y="21.362" filterUnits="userSpaceOnUse"><feFlood flood-opacity="0" result="BackgroundImageFix"/><feBlend in="SourceGraphic" in2="BackgroundImageFix" result="shape"/><feGaussianBlur result="effect1_foregroundBlur_28327_2988" stdDeviation=".15"/></filter><filter id="IconifyId-182f088b93a-e977b3-18444" width="2.288" height="2.021" x="13.374" y="21.362" filterUnits="userSpaceOnUse"><feFlood flood-opacity="0" result="BackgroundImageFix"/><feBlend in="SourceGraphic" in2="BackgroundImageFix" result="shape"/><feGaussianBlur result="effect1_foregroundBlur_28327_2988" stdDeviation=".15"/></filter></defs></g></svg>