<svg xmlns="http://www.w3.org/2000/svg" xmlns:xlink="http://www.w3.org/1999/xlink" width="1em" height="1em" preserveAspectRatio="xMidYMid meet" viewBox="0 0 32 32" style="-ms-transform: rotate(360deg); -webkit-transform: rotate(360deg); transform: rotate(360deg);"><g fill="none"><path fill="url(#IconifyId-182f080c99b-9f9529-17909)" d="M27.962 24.065V4.422c0-1.438-1.336-2.14-2.43-1.125l-4.014 3.952a1 1 0 0 1-.701.288H11.22a1 1 0 0 1-.701-.288L6.505 3.297c-1.094-1.016-2.43-.313-2.43 1.125v19.643c0 2.212 1.76 4.005 3.931 4.005h16.025c2.17 0 3.93-1.793 3.93-4.005Z"/><path fill="url(#IconifyId-182f080c99b-9f9529-17910)" d="M27.962 24.065V4.422c0-1.438-1.336-2.14-2.43-1.125l-4.014 3.952a1 1 0 0 1-.701.288H11.22a1 1 0 0 1-.701-.288L6.505 3.297c-1.094-1.016-2.43-.313-2.43 1.125v19.643c0 2.212 1.76 4.005 3.931 4.005h16.025c2.17 0 3.93-1.793 3.93-4.005Z"/><path fill="url(#IconifyId-182f080c99b-9f9529-17911)" d="M27.962 24.065V4.422c0-1.438-1.336-2.14-2.43-1.125l-4.014 3.952a1 1 0 0 1-.701.288H11.22a1 1 0 0 1-.701-.288L6.505 3.297c-1.094-1.016-2.43-.313-2.43 1.125v19.643c0 2.212 1.76 4.005 3.931 4.005h16.025c2.17 0 3.93-1.793 3.93-4.005Z"/><path fill="url(#IconifyId-182f080c99b-9f9529-17912)" d="M27.962 24.065V4.422c0-1.438-1.336-2.14-2.43-1.125l-4.014 3.952a1 1 0 0 1-.701.288H11.22a1 1 0 0 1-.701-.288L6.505 3.297c-1.094-1.016-2.43-.313-2.43 1.125v19.643c0 2.212 1.76 4.005 3.931 4.005h16.025c2.17 0 3.93-1.793 3.93-4.005Z"/><path fill="url(#IconifyId-182f080c99b-9f9529-17913)" d="M27.962 24.065V4.422c0-1.438-1.336-2.14-2.43-1.125l-4.014 3.952a1 1 0 0 1-.701.288H11.22a1 1 0 0 1-.701-.288L6.505 3.297c-1.094-1.016-2.43-.313-2.43 1.125v19.643c0 2.212 1.76 4.005 3.931 4.005h16.025c2.17 0 3.93-1.793 3.93-4.005Z"/><path fill="url(#IconifyId-182f080c99b-9f9529-17960)" d="M27.962 24.065V4.422c0-1.438-1.336-2.14-2.43-1.125l-4.014 3.952a1 1 0 0 1-.701.288H11.22a1 1 0 0 1-.701-.288L6.505 3.297c-1.094-1.016-2.43-.313-2.43 1.125v19.643c0 2.212 1.76 4.005 3.931 4.005h16.025c2.17 0 3.93-1.793 3.93-4.005Z"/><g filter="url(#IconifyId-182f080c99b-9f9529-17935)"><rect width="2.727" height="3.698" x="5.054" y="19.82" fill="#D67908" rx="1.363"/></g><g filter="url(#IconifyId-182f080c99b-9f9529-17936)"><path fill="url(#IconifyId-182f080c99b-9f9529-17914)" d="M20.75 8.2c-2.983.108 5.227 4.954 5.227 4.954l1.125-9.062c.055-.461-.364-.954-1.25-.131L21.84 7.913c-.187.184-.408.25-.702.288c-.15.02-.236-.006-.386 0Z"/></g><path fill="url(#IconifyId-182f080c99b-9f9529-17915)" d="m6.133 11.503l2.8-2.6c.32-.3.32-.78 0-1.07L5.918 5.156c-.383-.336-1.175-.226-1.175.607v5.2c0 .834.88 1.02 1.39.54Z"/><g filter="url(#IconifyId-182f080c99b-9f9529-17937)"><path fill="url(#IconifyId-182f080c99b-9f9529-17916)" d="M26.49 3.652a.38.38 0 0 1 .732.142v2.245l-1.417-.687l.686-1.7Z"/></g><g filter="url(#IconifyId-182f080c99b-9f9529-17938)"><path stroke="#FFDF70" stroke-linecap="round" d="m5.446 3.727l3.375 3.22c.754.718.768 1.918.031 2.655v0"/></g><g filter="url(#IconifyId-182f080c99b-9f9529-17939)"><path fill="url(#IconifyId-182f080c99b-9f9529-17917)" d="m14.805 18.65l.065-.015a3.03 3.03 0 0 1 1.438.015c.52.098.832.696.392 1.126l-.55.601c-.27.27-.864.27-1.134 0l-.543-.601c-.449-.508-.168-1.016.332-1.126Z"/></g><path fill="url(#IconifyId-182f080c99b-9f9529-17961)" d="m15.226 18.207l.065-.015a3.03 3.03 0 0 1 1.438.015c.521.098.832.695.392 1.125l-.55.602c-.27.27-.864.27-1.134 0l-.542-.602c-.45-.508-.168-1.016.332-1.125Z"/><g filter="url(#IconifyId-182f080c99b-9f9529-17940)"><ellipse cx="16.27" cy="18.741" fill="url(#IconifyId-182f080c99b-9f9529-17918)" rx=".762" ry=".274"/></g><g filter="url(#IconifyId-182f080c99b-9f9529-17941)"><path stroke="url(#IconifyId-182f080c99b-9f9529-17919)" stroke-linecap="round" stroke-miterlimit="10" stroke-width="1.2" d="m24.785 20.892l3.805-1.812"/></g><g filter="url(#IconifyId-182f080c99b-9f9529-17942)"><path stroke="url(#IconifyId-182f080c99b-9f9529-17920)" stroke-linecap="round" stroke-miterlimit="10" stroke-width="1.2" d="m24.785 22.924l1.927 1.365"/></g><path stroke="url(#IconifyId-182f080c99b-9f9529-17921)" stroke-linecap="round" stroke-miterlimit="10" stroke-width="1.2" d="m25.566 20.54l3.805-1.813"/><g filter="url(#IconifyId-182f080c99b-9f9529-17943)"><path stroke="#FF8485" stroke-linecap="round" stroke-miterlimit="10" stroke-width=".3" d="m25.566 20.71l3.805-1.812"/></g><g filter="url(#IconifyId-182f080c99b-9f9529-17944)"><ellipse cx="29.606" cy="18.581" fill="#FFDD86" rx=".184" ry=".166" transform="rotate(-22.745 29.606 18.58)"/></g><path stroke="url(#IconifyId-182f080c99b-9f9529-17922)" stroke-linecap="round" stroke-miterlimit="10" stroke-width="1.2" d="m25.564 22.67l3.801 1.818"/><g filter="url(#IconifyId-182f080c99b-9f9529-17945)"><path stroke="#FF8485" stroke-linecap="round" stroke-miterlimit="10" stroke-width=".3" d="m25.498 22.55l3.802 1.818"/></g><g filter="url(#IconifyId-182f080c99b-9f9529-17946)"><ellipse cx="29.541" cy="24.368" fill="#FFDD86" rx=".184" ry=".166" transform="rotate(28.298 29.54 24.368)"/></g><path stroke="url(#IconifyId-182f080c99b-9f9529-17923)" stroke-linecap="round" stroke-miterlimit="10" stroke-width="1.2" d="M6.528 22.681L2.727 24.5"/><g filter="url(#IconifyId-182f080c99b-9f9529-17947)"><path stroke="#FF8485" stroke-linecap="round" stroke-miterlimit="10" stroke-width=".3" d="m6.593 22.56l-3.801 1.82"/></g><g filter="url(#IconifyId-182f080c99b-9f9529-17948)"><ellipse fill="#FFDD86" rx=".184" ry=".166" transform="scale(-1 1) rotate(-19.477 62.242 30.615)"/></g><path stroke="url(#IconifyId-182f080c99b-9f9529-17924)" stroke-linecap="round" stroke-miterlimit="10" stroke-width="1.2" d="M6.54 20.524L2.726 18.73"/><g filter="url(#IconifyId-182f080c99b-9f9529-17949)"><path stroke="#FF8485" stroke-linecap="round" stroke-miterlimit="10" stroke-width=".3" d="M6.674 20.499L2.86 18.705"/></g><g filter="url(#IconifyId-182f080c99b-9f9529-17950)"><ellipse fill="#FFDD86" rx=".184" ry=".166" transform="scale(-1 1) rotate(-70.238 11.202 15.051)"/></g><path fill="url(#IconifyId-182f080c99b-9f9529-17925)" d="M20.418 21.055c0 2.44-1.982 4.336-4.422 4.336c-2.44 0-4.313-1.943-4.313-4.383c0 0 1.805 2.133 4.313 0c2.352 2.078 4.422.047 4.422.047Z"/><g filter="url(#IconifyId-182f080c99b-9f9529-17951)"><path fill="url(#IconifyId-182f080c99b-9f9529-17926)" d="M19.432 18.468a.772.772 0 0 1-.776-.76v-1.42c0-.417.35-.76.776-.76c.425 0 .775.343.775.76v1.42c0 .43-.35.76-.775.76Z"/></g><path fill="url(#IconifyId-182f080c99b-9f9529-17927)" d="M19.97 18.086a.772.772 0 0 1-.775-.76v-1.421c0-.417.35-.76.776-.76c.425 0 .775.343.775.76v1.421c0 .43-.35.76-.775.76Z"/><path fill="url(#IconifyId-182f080c99b-9f9529-17928)" d="M19.97 18.086a.772.772 0 0 1-.775-.76v-1.421c0-.417.35-.76.776-.76c.425 0 .775.343.775.76v1.421c0 .43-.35.76-.775.76Z"/><g filter="url(#IconifyId-182f080c99b-9f9529-17952)"><path fill="url(#IconifyId-182f080c99b-9f9529-17929)" d="M11.605 18.468a.771.771 0 0 1-.775-.76v-1.42c0-.417.35-.76.775-.76c.426 0 .776.343.776.76v1.42c0 .43-.35.76-.776.76Z"/></g><path fill="url(#IconifyId-182f080c99b-9f9529-17930)" d="M12.029 18.086a.771.771 0 0 1-.775-.76v-1.421c0-.417.35-.76.775-.76c.425 0 .775.343.775.76v1.421c0 .43-.35.76-.775.76Z"/><path fill="url(#IconifyId-182f080c99b-9f9529-17931)" d="M12.029 18.086a.771.771 0 0 1-.775-.76v-1.421c0-.417.35-.76.775-.76c.425 0 .775.343.775.76v1.421c0 .43-.35.76-.775.76Z"/><g filter="url(#IconifyId-182f080c99b-9f9529-17953)"><circle cx="20.207" cy="15.764" r=".236" fill="#775B70"/></g><g filter="url(#IconifyId-182f080c99b-9f9529-17954)"><circle cx="12.265" cy="15.764" r=".236" fill="#775B70"/></g><g filter="url(#IconifyId-182f080c99b-9f9529-17955)"><path fill="url(#IconifyId-182f080c99b-9f9529-17932)" d="M22.102 8.102h4.585v14.186h-4.585z"/></g><path fill="#FFB915" d="m25.833 11.503l-2.8-2.6a.716.716 0 0 1 0-1.07l3.015-2.677c.382-.336 1.175-.226 1.175.607v5.2c0 .834-.88 1.02-1.39.54Z"/><path fill="url(#IconifyId-182f080c99b-9f9529-17933)" d="m25.833 11.503l-2.8-2.6a.716.716 0 0 1 0-1.07l3.015-2.677c.382-.336 1.175-.226 1.175.607v5.2c0 .834-.88 1.02-1.39.54Z"/><g filter="url(#IconifyId-182f080c99b-9f9529-17956)"><path fill="url(#IconifyId-182f080c99b-9f9529-17962)" d="m26.634 5.367l-3.625 3.125l3.546 2.813l.079-5.938Z"/></g><g filter="url(#IconifyId-182f080c99b-9f9529-17957)"><path stroke="url(#IconifyId-182f080c99b-9f9529-17934)" stroke-linecap="round" stroke-width=".5" d="m23.727 8.29l2.532 2.733"/></g><g filter="url(#IconifyId-182f080c99b-9f9529-17958)"><path fill="#FEB33E" d="M5.223 5.5v5.907l3.469-3.09L5.223 5.5Z"/></g><g filter="url(#IconifyId-182f080c99b-9f9529-17959)"><path stroke="#FFE7A3" stroke-linecap="round" stroke-width=".15" d="M5.223 5.727v5.187"/></g><defs><linearGradient id="IconifyId-182f080c99b-9f9529-17909" x1="7.964" x2="7.964" y1="-.87" y2="29.07" gradientUnits="userSpaceOnUse"><stop offset=".288" stop-color="#F2CC26"/><stop offset=".762" stop-color="#E99E20"/><stop offset=".993" stop-color="#E3821D"/><stop offset="1" stop-color="#E3801D"/></linearGradient><linearGradient id="IconifyId-182f080c99b-9f9529-17910" x1="8.884" x2="1.259" y1="9.922" y2="9.922" gradientUnits="userSpaceOnUse"><stop stop-color="#E99E20" stop-opacity="0"/><stop offset=".993" stop-color="#E3821D"/><stop offset="1" stop-color="#E3801D"/></linearGradient><linearGradient id="IconifyId-182f080c99b-9f9529-17911" x1="26.759" x2="30.196" y1="9.922" y2="9.922" gradientUnits="userSpaceOnUse"><stop stop-color="#E99E20" stop-opacity="0"/><stop offset=".993" stop-color="#E3821D"/><stop offset="1" stop-color="#E3801D"/></linearGradient><linearGradient id="IconifyId-182f080c99b-9f9529-17912" x1="16.02" x2="16.019" y1="-3.844" y2="29.07" gradientUnits="userSpaceOnUse"><stop offset=".771" stop-color="#F59639" stop-opacity="0"/><stop offset="1" stop-color="#FF63C4"/></linearGradient><linearGradient id="IconifyId-182f080c99b-9f9529-17913" x1="16.019" x2="16.019" y1="9.133" y2="30.57" gradientUnits="userSpaceOnUse"><stop offset=".854" stop-color="#fff" stop-opacity="0"/><stop offset=".985" stop-color="#fff"/></linearGradient><linearGradient id="IconifyId-182f080c99b-9f9529-17914" x1="21.908" x2="28.165" y1="4.852" y2="11.695" gradientUnits="userSpaceOnUse"><stop stop-color="#FFA720"/><stop offset="1" stop-color="#FFA720" stop-opacity="0"/></linearGradient><linearGradient id="IconifyId-182f080c99b-9f9529-17915" x1="10.602" x2="4.743" y1="8.617" y2="8.07" gradientUnits="userSpaceOnUse"><stop offset=".437" stop-color="#ED8C1B"/><stop offset="1" stop-color="#FFB03A"/></linearGradient><linearGradient id="IconifyId-182f080c99b-9f9529-17916" x1="27.04" x2="26.444" y1="2.961" y2="5.302" gradientUnits="userSpaceOnUse"><stop offset=".286" stop-color="#FFE792"/><stop offset="1" stop-color="#FFDD65" stop-opacity="0"/></linearGradient><linearGradient id="IconifyId-182f080c99b-9f9529-17917" x1="15.751" x2="15.079" y1="20.351" y2="21.445" gradientUnits="userSpaceOnUse"><stop stop-color="#E3900E"/><stop offset="1" stop-color="#EA9D26" stop-opacity="0"/></linearGradient><linearGradient id="IconifyId-182f080c99b-9f9529-17918" x1="17.204" x2="15.68" y1="18.741" y2="18.741" gradientUnits="userSpaceOnUse"><stop stop-color="#fff" stop-opacity=".9"/><stop offset="1" stop-color="#fff" stop-opacity="0"/></linearGradient><linearGradient id="IconifyId-182f080c99b-9f9529-17919" x1="24.29" x2="28.024" y1="21.236" y2="19.32" gradientUnits="userSpaceOnUse"><stop stop-color="#E88105"/><stop offset="1" stop-color="#E37D02" stop-opacity="0"/></linearGradient><linearGradient id="IconifyId-182f080c99b-9f9529-17920" x1="24.29" x2="28.024" y1="22.58" y2="24.495" gradientUnits="userSpaceOnUse"><stop offset=".286" stop-color="#DE7D07"/><stop offset=".818" stop-color="#E37D02" stop-opacity="0"/></linearGradient><linearGradient id="IconifyId-182f080c99b-9f9529-17921" x1="25.29" x2="29.371" y1="20.945" y2="19.008" gradientUnits="userSpaceOnUse"><stop offset=".156" stop-color="#D64A38"/><stop offset="1" stop-color="#FB7425"/></linearGradient><linearGradient id="IconifyId-182f080c99b-9f9529-17922" x1="25.074" x2="29.146" y1="22.71" y2="24.665" gradientUnits="userSpaceOnUse"><stop offset=".156" stop-color="#D64A38"/><stop offset="1" stop-color="#FB7425"/></linearGradient><linearGradient id="IconifyId-182f080c99b-9f9529-17923" x1="7.018" x2="2.945" y1="22.721" y2="24.677" gradientUnits="userSpaceOnUse"><stop offset=".156" stop-color="#D64A38"/><stop offset="1" stop-color="#FB7425"/></linearGradient><linearGradient id="IconifyId-182f080c99b-9f9529-17924" x1="6.818" x2="2.728" y1="20.929" y2="19.012" gradientUnits="userSpaceOnUse"><stop offset=".156" stop-color="#D64A38"/><stop offset="1" stop-color="#FB7425"/></linearGradient><linearGradient id="IconifyId-182f080c99b-9f9529-17925" x1="16.047" x2="16.047" y1="25.523" y2="21.1" gradientUnits="userSpaceOnUse"><stop stop-color="#E61E27"/><stop offset="1" stop-color="#672A7A"/></linearGradient><linearGradient id="IconifyId-182f080c99b-9f9529-17926" x1="20.688" x2="21.688" y1="17.68" y2="21.141" gradientUnits="userSpaceOnUse"><stop stop-color="#EC9611"/><stop offset="1" stop-color="#EA9D26" stop-opacity="0"/></linearGradient><linearGradient id="IconifyId-182f080c99b-9f9529-17927" x1="22.899" x2="18.43" y1="16.211" y2="16.211" gradientUnits="userSpaceOnUse"><stop stop-color="#432A3D"/><stop offset=".568" stop-color="#684E61"/><stop offset=".766" stop-color="#43253D"/></linearGradient><linearGradient id="IconifyId-182f080c99b-9f9529-17928" x1="20.321" x2="20.321" y1="16.055" y2="18.352" gradientUnits="userSpaceOnUse"><stop offset=".327" stop-color="#43253D" stop-opacity="0"/><stop offset="1" stop-color="#43253D"/></linearGradient><linearGradient id="IconifyId-182f080c99b-9f9529-17929" x1="12.862" x2="13.862" y1="17.68" y2="21.141" gradientUnits="userSpaceOnUse"><stop stop-color="#E89311"/><stop offset="1" stop-color="#EA9D26" stop-opacity="0"/></linearGradient><linearGradient id="IconifyId-182f080c99b-9f9529-17930" x1="14.957" x2="10.489" y1="16.211" y2="16.211" gradientUnits="userSpaceOnUse"><stop stop-color="#432A3D"/><stop offset=".568" stop-color="#684E61"/><stop offset=".766" stop-color="#43253D"/></linearGradient><linearGradient id="IconifyId-182f080c99b-9f9529-17931" x1="12.379" x2="12.379" y1="16.055" y2="18.352" gradientUnits="userSpaceOnUse"><stop offset=".327" stop-color="#43253D" stop-opacity="0"/><stop offset="1" stop-color="#43253D"/></linearGradient><linearGradient id="IconifyId-182f080c99b-9f9529-17932" x1="23.352" x2="22.956" y1="8.839" y2="20.889" gradientUnits="userSpaceOnUse"><stop offset=".548" stop-color="#FFDD65"/><stop offset="1" stop-color="#FFDD65" stop-opacity="0"/></linearGradient><linearGradient id="IconifyId-182f080c99b-9f9529-17933" x1="26.54" x2="25.29" y1="13.508" y2="10.039" gradientUnits="userSpaceOnUse"><stop stop-color="#EF8A47"/><stop offset="1" stop-color="#EF8A47" stop-opacity="0"/></linearGradient><linearGradient id="IconifyId-182f080c99b-9f9529-17934" x1="25.055" x2="25.055" y1="8.477" y2="10.82" gradientUnits="userSpaceOnUse"><stop offset=".432" stop-color="#FFE7A3"/><stop offset="1" stop-color="#FFDF83" stop-opacity="0"/></linearGradient><filter id="IconifyId-182f080c99b-9f9529-17935" width="5.727" height="6.698" x="3.554" y="18.32" filterUnits="userSpaceOnUse"><feFlood flood-opacity="0" result="BackgroundImageFix"/><feBlend in="SourceGraphic" in2="BackgroundImageFix" result="shape"/><feGaussianBlur result="effect1_foregroundBlur_28327_2053" stdDeviation=".75"/></filter><filter id="IconifyId-182f080c99b-9f9529-17936" width="9.009" height="11.636" x="19.098" y="2.519" filterUnits="userSpaceOnUse"><feFlood flood-opacity="0" result="BackgroundImageFix"/><feBlend in="SourceGraphic" in2="BackgroundImageFix" result="shape"/><feGaussianBlur result="effect1_foregroundBlur_28327_2053" stdDeviation=".5"/></filter><filter id="IconifyId-182f080c99b-9f9529-17937" width="3.417" height="4.625" x="24.805" y="2.414" filterUnits="userSpaceOnUse"><feFlood flood-opacity="0" result="BackgroundImageFix"/><feBlend in="SourceGraphic" in2="BackgroundImageFix" result="shape"/><feGaussianBlur result="effect1_foregroundBlur_28327_2053" stdDeviation=".5"/></filter><filter id="IconifyId-182f080c99b-9f9529-17938" width="8.95" height="10.729" x="2.946" y="1.227" filterUnits="userSpaceOnUse"><feFlood flood-opacity="0" result="BackgroundImageFix"/><feBlend in="SourceGraphic" in2="BackgroundImageFix" result="shape"/><feGaussianBlur result="effect1_foregroundBlur_28327_2053" stdDeviation="1"/></filter><filter id="IconifyId-182f080c99b-9f9529-17939" width="3.661" height="3.024" x="13.748" y="18.056" filterUnits="userSpaceOnUse"><feFlood flood-opacity="0" result="BackgroundImageFix"/><feBlend in="SourceGraphic" in2="BackgroundImageFix" result="shape"/><feGaussianBlur result="effect1_foregroundBlur_28327_2053" stdDeviation=".25"/></filter><filter id="IconifyId-182f080c99b-9f9529-17940" width="2.723" height="1.748" x="14.909" y="17.867" filterUnits="userSpaceOnUse"><feFlood flood-opacity="0" result="BackgroundImageFix"/><feBlend in="SourceGraphic" in2="BackgroundImageFix" result="shape"/><feGaussianBlur result="effect1_foregroundBlur_28327_2053" stdDeviation=".3"/></filter><filter id="IconifyId-182f080c99b-9f9529-17941" width="6.005" height="4.013" x="23.685" y="17.98" filterUnits="userSpaceOnUse"><feFlood flood-opacity="0" result="BackgroundImageFix"/><feBlend in="SourceGraphic" in2="BackgroundImageFix" result="shape"/><feGaussianBlur result="effect1_foregroundBlur_28327_2053" stdDeviation=".25"/></filter><filter id="IconifyId-182f080c99b-9f9529-17942" width="4.127" height="3.566" x="23.685" y="21.823" filterUnits="userSpaceOnUse"><feFlood flood-opacity="0" result="BackgroundImageFix"/><feBlend in="SourceGraphic" in2="BackgroundImageFix" result="shape"/><feGaussianBlur result="effect1_foregroundBlur_28327_2053" stdDeviation=".25"/></filter><filter id="IconifyId-182f080c99b-9f9529-17943" width="5.105" height="3.113" x="24.916" y="18.248" filterUnits="userSpaceOnUse"><feFlood flood-opacity="0" result="BackgroundImageFix"/><feBlend in="SourceGraphic" in2="BackgroundImageFix" result="shape"/><feGaussianBlur result="effect1_foregroundBlur_28327_2053" stdDeviation=".25"/></filter><filter id="IconifyId-182f080c99b-9f9529-17944" width="1.363" height="1.337" x="28.925" y="17.912" filterUnits="userSpaceOnUse"><feFlood flood-opacity="0" result="BackgroundImageFix"/><feBlend in="SourceGraphic" in2="BackgroundImageFix" result="shape"/><feGaussianBlur result="effect1_foregroundBlur_28327_2053" stdDeviation=".25"/></filter><filter id="IconifyId-182f080c99b-9f9529-17945" width="5.102" height="3.119" x="24.848" y="21.899" filterUnits="userSpaceOnUse"><feFlood flood-opacity="0" result="BackgroundImageFix"/><feBlend in="SourceGraphic" in2="BackgroundImageFix" result="shape"/><feGaussianBlur result="effect1_foregroundBlur_28327_2053" stdDeviation=".25"/></filter><filter id="IconifyId-182f080c99b-9f9529-17946" width="1.36" height="1.34" x="28.86" y="23.698" filterUnits="userSpaceOnUse"><feFlood flood-opacity="0" result="BackgroundImageFix"/><feBlend in="SourceGraphic" in2="BackgroundImageFix" result="shape"/><feGaussianBlur result="effect1_foregroundBlur_28327_2053" stdDeviation=".25"/></filter><filter id="IconifyId-182f080c99b-9f9529-17947" width="5.102" height="3.119" x="2.142" y="21.911" filterUnits="userSpaceOnUse"><feFlood flood-opacity="0" result="BackgroundImageFix"/><feBlend in="SourceGraphic" in2="BackgroundImageFix" result="shape"/><feGaussianBlur result="effect1_foregroundBlur_28327_2053" stdDeviation=".25"/></filter><filter id="IconifyId-182f080c99b-9f9529-17948" width="1.364" height="1.336" x="5.964" y="21.837" filterUnits="userSpaceOnUse"><feFlood flood-opacity="0" result="BackgroundImageFix"/><feBlend in="SourceGraphic" in2="BackgroundImageFix" result="shape"/><feGaussianBlur result="effect1_foregroundBlur_28327_2053" stdDeviation=".25"/></filter><filter id="IconifyId-182f080c99b-9f9529-17949" width="5.114" height="3.094" x="2.21" y="18.055" filterUnits="userSpaceOnUse"><feFlood flood-opacity="0" result="BackgroundImageFix"/><feBlend in="SourceGraphic" in2="BackgroundImageFix" result="shape"/><feGaussianBlur result="effect1_foregroundBlur_28327_2053" stdDeviation=".25"/></filter><filter id="IconifyId-182f080c99b-9f9529-17950" width="1.336" height="1.364" x="6.083" y="19.823" filterUnits="userSpaceOnUse"><feFlood flood-opacity="0" result="BackgroundImageFix"/><feBlend in="SourceGraphic" in2="BackgroundImageFix" result="shape"/><feGaussianBlur result="effect1_foregroundBlur_28327_2053" stdDeviation=".25"/></filter><filter id="IconifyId-182f080c99b-9f9529-17951" width="2.551" height="3.941" x="18.156" y="15.028" filterUnits="userSpaceOnUse"><feFlood flood-opacity="0" result="BackgroundImageFix"/><feBlend in="SourceGraphic" in2="BackgroundImageFix" result="shape"/><feGaussianBlur result="effect1_foregroundBlur_28327_2053" stdDeviation=".25"/></filter><filter id="IconifyId-182f080c99b-9f9529-17952" width="2.551" height="3.941" x="10.33" y="15.028" filterUnits="userSpaceOnUse"><feFlood flood-opacity="0" result="BackgroundImageFix"/><feBlend in="SourceGraphic" in2="BackgroundImageFix" result="shape"/><feGaussianBlur result="effect1_foregroundBlur_28327_2053" stdDeviation=".25"/></filter><filter id="IconifyId-182f080c99b-9f9529-17953" width="1.472" height="1.472" x="19.471" y="15.028" filterUnits="userSpaceOnUse"><feFlood flood-opacity="0" result="BackgroundImageFix"/><feBlend in="SourceGraphic" in2="BackgroundImageFix" result="shape"/><feGaussianBlur result="effect1_foregroundBlur_28327_2053" stdDeviation=".25"/></filter><filter id="IconifyId-182f080c99b-9f9529-17954" width="1.472" height="1.472" x="11.529" y="15.028" filterUnits="userSpaceOnUse"><feFlood flood-opacity="0" result="BackgroundImageFix"/><feBlend in="SourceGraphic" in2="BackgroundImageFix" result="shape"/><feGaussianBlur result="effect1_foregroundBlur_28327_2053" stdDeviation=".25"/></filter><filter id="IconifyId-182f080c99b-9f9529-17955" width="12.585" height="22.186" x="18.102" y="4.102" filterUnits="userSpaceOnUse"><feFlood flood-opacity="0" result="BackgroundImageFix"/><feBlend in="SourceGraphic" in2="BackgroundImageFix" result="shape"/><feGaussianBlur result="effect1_foregroundBlur_28327_2053" stdDeviation="2"/></filter><filter id="IconifyId-182f080c99b-9f9529-17956" width="4.825" height="7.138" x="22.409" y="4.767" filterUnits="userSpaceOnUse"><feFlood flood-opacity="0" result="BackgroundImageFix"/><feBlend in="SourceGraphic" in2="BackgroundImageFix" result="shape"/><feGaussianBlur result="effect1_foregroundBlur_28327_2053" stdDeviation=".3"/></filter><filter id="IconifyId-182f080c99b-9f9529-17957" width="4.531" height="4.734" x="22.727" y="7.289" filterUnits="userSpaceOnUse"><feFlood flood-opacity="0" result="BackgroundImageFix"/><feBlend in="SourceGraphic" in2="BackgroundImageFix" result="shape"/><feGaussianBlur result="effect1_foregroundBlur_28327_2053" stdDeviation=".375"/></filter><filter id="IconifyId-182f080c99b-9f9529-17958" width="4.469" height="6.908" x="4.723" y="4.999" filterUnits="userSpaceOnUse"><feFlood flood-opacity="0" result="BackgroundImageFix"/><feBlend in="SourceGraphic" in2="BackgroundImageFix" result="shape"/><feGaussianBlur result="effect1_foregroundBlur_28327_2053" stdDeviation=".25"/></filter><filter id="IconifyId-182f080c99b-9f9529-17959" width="1.15" height="6.337" x="4.648" y="5.152" filterUnits="userSpaceOnUse"><feFlood flood-opacity="0" result="BackgroundImageFix"/><feBlend in="SourceGraphic" in2="BackgroundImageFix" result="shape"/><feGaussianBlur result="effect1_foregroundBlur_28327_2053" stdDeviation=".25"/></filter><radialGradient id="IconifyId-182f080c99b-9f9529-17960" cx="0" cy="0" r="1" gradientTransform="matrix(3.03126 4.46874 -8.83051 5.98995 22.164 2.289)" gradientUnits="userSpaceOnUse"><stop stop-color="#FFA720"/><stop offset=".921" stop-color="#FFA720" stop-opacity="0"/></radialGradient><radialGradient id="IconifyId-182f080c99b-9f9529-17961" cx="0" cy="0" r="1" gradientTransform="matrix(-1.89063 -.95312 .95876 -1.9018 16.446 19.18)" gradientUnits="userSpaceOnUse"><stop stop-color="#EA088B"/><stop offset="1" stop-color="#E61E27"/></radialGradient><radialGradient id="IconifyId-182f080c99b-9f9529-17962" cx="0" cy="0" r="1" gradientTransform="matrix(4.40625 6.46875 -7.7559 5.283 22.868 5.773)" gradientUnits="userSpaceOnUse"><stop stop-color="#FFDF70"/><stop offset="1" stop-color="#FFDF70" stop-opacity="0"/></radialGradient></defs></g></svg>